<svg width="20" height="18" viewBox="0 0 20 18" fill="none" xmlns="http://www.w3.org/2000/svg">
<path d="M13.3176 0.354469C13.9012 0.586774 14.3139 1.0055 14.6839 1.61936L14.8058 1.83123L15.258 2.69838L15.2729 2.72259L15.2864 2.74367L15.3248 2.79617C15.5308 3.02068 15.8757 3.1563 16.1032 3.1563C18.188 3.1563 19.8908 4.79356 19.9952 6.85184L20.0002 7.0523V12.8473C20.0002 15.5193 17.8901 17.6998 15.2458 17.8127L15.0302 17.8173H4.97024C2.29758 17.8173 0.117715 15.7074 0.00483586 13.0629L0.000244141 12.8473V7.0523C0.000244141 4.9009 1.74522 3.1563 3.89724 3.1563C4.12402 3.1563 4.46932 3.02048 4.67568 2.79617L4.6828 2.78779L4.69169 2.77614L4.74312 2.69725L5.19406 1.8315C5.59601 1.10098 6.03328 0.61263 6.68213 0.354375C7.87114 -0.118405 12.1295 -0.118405 13.3176 0.354469ZM7.2366 1.74813C7.01521 1.83625 6.81477 2.04022 6.60086 2.39381L6.50826 2.55461L6.1234 3.2987L6.02868 3.47013C5.9496 3.60166 5.87051 3.71269 5.78019 3.81109C5.31977 4.31155 4.65871 4.6006 4.07106 4.64902L3.89724 4.6563L3.73315 4.66183C2.54022 4.74249 1.58646 5.69603 1.50577 6.8883L1.50024 7.0523V12.8473C1.50024 14.6996 2.95198 16.2133 4.77986 16.3122L4.97024 16.3173H15.0302C16.8822 16.3173 18.3962 14.865 18.4951 13.0376L18.5002 12.8473V7.0523C18.5002 5.78452 17.5145 4.74616 16.2673 4.66183L16.1032 4.6563L15.9291 4.64902C15.3406 4.60059 14.6795 4.31147 14.2197 3.81043C14.1306 3.71333 14.0519 3.60309 13.9733 3.47267L13.9544 3.44034L13.9319 3.40019L13.8158 3.18244L13.4919 2.55488C13.2732 2.15777 13.0729 1.91508 12.8566 1.79311L12.7629 1.74813L12.6436 1.70847C11.6144 1.41758 8.03466 1.43081 7.2366 1.74813ZM9.99994 6.199C12.1702 6.199 13.9289 7.95779 13.9289 10.128C13.9289 12.2982 12.1702 14.057 9.99994 14.057C7.82973 14.057 6.07094 12.2982 6.07094 10.128C6.07094 7.95779 7.82973 6.199 9.99994 6.199ZM9.99994 7.699C8.65816 7.699 7.57094 8.78622 7.57094 10.128C7.57094 11.4698 8.65816 12.557 9.99994 12.557C11.3417 12.557 12.4289 11.4698 12.4289 10.128C12.4289 8.78622 11.3417 7.699 9.99994 7.699ZM15.5045 5.5C16.0568 5.5 16.5045 5.94772 16.5045 6.5C16.5045 7.01284 16.1185 7.43551 15.6212 7.49327L15.5045 7.5C14.9433 7.5 14.4955 7.05229 14.4955 6.5C14.4955 5.98717 14.8816 5.56449 15.3789 5.50673L15.5045 5.5Z" fill="#3274E1"/>
</svg>
