<svg width="17" height="18" viewBox="0 0 17 18" fill="none" xmlns="http://www.w3.org/2000/svg">
<path d="M13.9091 4.90909C13.2273 4.90909 12.6477 4.67045 12.1705 4.19318C11.6932 3.71591 11.4545 3.13636 11.4545 2.45455C11.4545 1.77273 11.6932 1.19318 12.1705 0.715909C12.6477 0.238636 13.2273 0 13.9091 0C14.5909 0 15.1705 0.238636 15.6477 0.715909C16.125 1.19318 16.3636 1.77273 16.3636 2.45455C16.3636 3.13636 16.125 3.71591 15.6477 4.19318C15.1705 4.67045 14.5909 4.90909 13.9091 4.90909ZM0 18V3.27273C0 2.82273 0.160364 2.43736 0.481091 2.11664C0.801818 1.79591 1.18691 1.63582 1.63636 1.63636H9.9C9.84546 1.90909 9.81818 2.18182 9.81818 2.45455C9.81818 2.72727 9.84546 3 9.9 3.27273C10.0909 4.21364 10.5614 4.99445 11.3114 5.61518C12.0614 6.23591 12.9273 6.546 13.9091 6.54545C14.3455 6.54545 14.775 6.47727 15.1977 6.34091C15.6205 6.20455 16.0091 6 16.3636 5.72727V13.0909C16.3636 13.5409 16.2033 13.9263 15.8825 14.247C15.5618 14.5677 15.1767 14.7278 14.7273 14.7273H3.27273L0 18Z" fill="#3274E1"/>
</svg>
