<svg width="26" height="28" viewBox="0 0 26 28" fill="none" xmlns="http://www.w3.org/2000/svg">
<g filter="url(#filter0_d_110_1037)">
<path d="M7.33334 20C6.72223 20 6.19889 19.7822 5.76334 19.3467C5.32778 18.9111 5.11037 18.3881 5.11111 17.7778V3.33334C4.7963 3.33334 4.53223 3.22667 4.31889 3.01334C4.10556 2.8 3.99926 2.5363 4 2.22223C4 1.90741 4.10667 1.64334 4.32 1.43C4.53334 1.21667 4.79704 1.11037 5.11111 1.11111H9.55556C9.55556 0.7963 9.66222 0.532226 9.87556 0.318893C10.0889 0.105559 10.3526 -0.000736896 10.6667 3.84468e-06H15.1111C15.4259 3.84468e-06 15.69 0.106671 15.9033 0.320004C16.1167 0.533337 16.223 0.797041 16.2222 1.11111H20.6667C20.9815 1.11111 21.2456 1.21778 21.4589 1.43111C21.6722 1.64445 21.7785 1.90815 21.7778 2.22223C21.7778 2.53704 21.6711 2.80111 21.4578 3.01445C21.2444 3.22778 20.9807 3.33408 20.6667 3.33334V17.7778C20.6667 18.3889 20.4489 18.9122 20.0133 19.3478C19.5778 19.7833 19.0548 20.0007 18.4444 20H7.33334ZM7.33334 3.33334V17.7778H18.4444V3.33334H7.33334ZM9.55556 14.4444C9.55556 14.7593 9.66222 15.0233 9.87556 15.2367C10.0889 15.45 10.3526 15.5563 10.6667 15.5556C10.9815 15.5556 11.2456 15.4489 11.4589 15.2356C11.6722 15.0222 11.7785 14.7585 11.7778 14.4444V6.66667C11.7778 6.35185 11.6711 6.08778 11.4578 5.87445C11.2444 5.66111 10.9807 5.55482 10.6667 5.55556C10.3519 5.55556 10.0878 5.66222 9.87445 5.87556C9.66111 6.08889 9.55482 6.35259 9.55556 6.66667V14.4444ZM14 14.4444C14 14.7593 14.1067 15.0233 14.32 15.2367C14.5333 15.45 14.797 15.5563 15.1111 15.5556C15.4259 15.5556 15.69 15.4489 15.9033 15.2356C16.1167 15.0222 16.223 14.7585 16.2222 14.4444V6.66667C16.2222 6.35185 16.1156 6.08778 15.9022 5.87445C15.6889 5.66111 15.4252 5.55482 15.1111 5.55556C14.7963 5.55556 14.5322 5.66222 14.3189 5.87556C14.1056 6.08889 13.9993 6.35259 14 6.66667V14.4444Z" fill="#8C0000"/>
</g>
<defs>
<filter id="filter0_d_110_1037" x="0" y="0" width="25.7778" height="28" filterUnits="userSpaceOnUse" color-interpolation-filters="sRGB">
<feFlood flood-opacity="0" result="BackgroundImageFix"/>
<feColorMatrix in="SourceAlpha" type="matrix" values="0 0 0 0 0 0 0 0 0 0 0 0 0 0 0 0 0 0 127 0" result="hardAlpha"/>
<feOffset dy="4"/>
<feGaussianBlur stdDeviation="2"/>
<feComposite in2="hardAlpha" operator="out"/>
<feColorMatrix type="matrix" values="0 0 0 0 0 0 0 0 0 0 0 0 0 0 0 0 0 0 0.25 0"/>
<feBlend mode="normal" in2="BackgroundImageFix" result="effect1_dropShadow_110_1037"/>
<feBlend mode="normal" in="SourceGraphic" in2="effect1_dropShadow_110_1037" result="shape"/>
</filter>
</defs>
</svg>
