<svg width="22" height="22" viewBox="0 0 22 22" fill="none" xmlns="http://www.w3.org/2000/svg">
<path d="M11 0C17.0751 0 22 4.92487 22 11C22 17.0751 17.0751 22 11 22C4.92487 22 0 17.0751 0 11C0 4.92487 4.92487 0 11 0ZM11 1.83333C5.9374 1.83333 1.83333 5.9374 1.83333 11C1.83333 16.0626 5.9374 20.1667 11 20.1667C16.0626 20.1667 20.1667 16.0626 20.1667 11C20.1667 5.9374 16.0626 1.83333 11 1.83333ZM14.4165 14.0553C14.7541 13.6781 15.3336 13.646 15.7109 13.9836C16.0881 14.3213 16.1201 14.9008 15.7826 15.2781C14.6089 16.5893 12.9005 17.4167 11 17.4167C9.09951 17.4167 7.39105 16.5893 6.21742 15.2781C5.87979 14.9008 5.91189 14.3213 6.28912 13.9836C6.66637 13.646 7.24586 13.6781 7.58351 14.0553C8.42406 14.9945 9.64266 15.5833 11 15.5833C12.3573 15.5833 13.5759 14.9945 14.4165 14.0553ZM7.79167 7.79167C8.55105 7.79167 9.16667 8.40728 9.16667 9.16667C9.16667 9.92605 8.55105 10.5417 7.79167 10.5417C7.03228 10.5417 6.41667 9.92605 6.41667 9.16667C6.41667 8.40728 7.03228 7.79167 7.79167 7.79167ZM14.2083 7.79167C14.9677 7.79167 15.5833 8.40728 15.5833 9.16667C15.5833 9.92605 14.9677 10.5417 14.2083 10.5417C13.4489 10.5417 12.8333 9.92605 12.8333 9.16667C12.8333 8.40728 13.4489 7.79167 14.2083 7.79167Z" fill="#3274E1"/>
</svg>
