<svg width="18" height="22" viewBox="0 0 18 22" fill="none" xmlns="http://www.w3.org/2000/svg">
<path fill-rule="evenodd" clip-rule="evenodd" d="M16.7495 8.8009C17.1645 8.8009 17.4995 9.1369 17.4995 9.5509C17.4995 14.1431 13.9749 17.9235 9.49982 18.3069L9.49951 20.75C9.49951 21.164 9.16351 21.5 8.74951 21.5C8.33551 21.5 7.99951 21.164 7.99951 20.75L8.0002 18.307C3.52465 17.924 -0.000488281 14.1434 -0.000488281 9.5509C-0.000488281 9.1369 0.335512 8.8009 0.749512 8.8009C1.16451 8.8009 1.49951 9.1369 1.49951 9.5509C1.49951 13.5689 4.75151 16.8389 8.74951 16.8389C12.7475 16.8389 15.9995 13.5689 15.9995 9.5509C15.9995 9.1369 16.3355 8.8009 16.7495 8.8009ZM8.74951 0C11.4025 0 13.5615 2.167 13.5615 4.831V9.519C13.5615 12.182 11.4025 14.349 8.74951 14.349C6.09651 14.349 3.93751 12.182 3.93751 9.519V4.831C3.93751 2.167 6.09651 0 8.74951 0ZM8.74951 1.5C6.92351 1.5 5.43751 2.994 5.43751 4.831V9.519C5.43751 11.354 6.92351 12.849 8.74951 12.849C10.5755 12.849 12.0615 11.354 12.0615 9.519V4.831C12.0615 2.994 10.5755 1.5 8.74951 1.5Z" fill="#3274E1"/>
</svg>
