<svg width="22" height="18" viewBox="0 0 22 18" fill="none" xmlns="http://www.w3.org/2000/svg">
<path d="M19.1881 0L19.1869 16.9115C19.4966 17.4097 19.8169 17.6013 20.0856 17.6C20.3521 17.5988 20.6691 17.4049 20.9727 16.9216L20.1435 8.28388L20.1338 8.17867L20.2002 8.09481C21.153 6.89937 21.486 4.83406 21.2142 3.08717C21.0783 2.21368 20.7938 1.42309 20.3954 0.864204C20.0613 0.395516 19.6628 0.096536 19.1882 0H19.1881ZM2.43121 0.000176071L2.43049 2.95376L1.86529 2.95306V0.000351974H1.22157L1.22166 2.95319H0.65565V0.000351974H5.41566e-09V4.54238C-4.49946e-05 5.04473 0.28035 5.32329 0.7218 5.49551L0.9045 5.56688L0.90045 5.75916C0.81045 9.48024 0.721485 13.2013 0.63216 16.9223C0.93996 17.4148 1.25613 17.6012 1.51938 17.6C1.78263 17.5988 2.09853 17.4074 2.40241 16.921C2.29824 13.2009 2.19406 9.48076 2.09007 5.76065L2.08467 5.56705L2.26795 5.49639C2.73253 5.31573 3.03471 5.00913 3.03471 4.54265V0.000176071H2.43121ZM10.6566 1.716C8.73513 1.716 6.89234 2.46235 5.53364 3.79085C4.17494 5.11936 3.41163 6.9212 3.41163 8.8C3.41163 10.6788 4.17494 12.4806 5.53364 13.8091C6.89234 15.1376 8.73513 15.884 10.6566 15.884C12.5781 15.884 14.4209 15.1376 15.7796 13.8091C17.1383 12.4806 17.9016 10.6788 17.9016 8.8C17.9016 6.9212 17.1383 5.11936 15.7796 3.79085C14.4209 2.46235 12.5781 1.716 10.6566 1.716Z" fill="#3274E1"/>
</svg>
