<svg width="21" height="16" viewBox="0 0 21 16" fill="none" xmlns="http://www.w3.org/2000/svg">
<path fill-rule="evenodd" clip-rule="evenodd" d="M6.08921 0.00137847L6.55955 0.00198212C6.63995 0.00209567 6.72125 0.00221527 6.80329 0.00234027L7.30316 0.00314994C8.39995 0.00502237 9.56819 0.00759027 10.4586 0.00944097L10.8485 0.0102391C10.9098 0.0103619 10.9691 0.0104792 11.0263 0.0105903C13.2763 -0.14741 15.3073 1.52259 15.4883 3.76359C15.49 3.78658 15.4914 3.91702 15.4927 4.15428L17.5685 2.45429C18.1725 1.95929 18.9855 1.86229 19.6905 2.19529C20.3955 2.53029 20.8335 3.22229 20.8325 4.00229L20.8205 11.3513C20.8195 12.1313 20.3805 12.8233 19.6765 13.1553C19.4005 13.2863 19.1085 13.3493 18.8185 13.3493C18.3675 13.3493 17.9225 13.1943 17.5555 12.8933L15.4973 11.1855C15.4973 11.2144 15.4973 11.2435 15.4973 11.2726C15.5393 12.3286 15.1633 13.3456 14.4373 14.1356C13.6743 14.9666 12.6223 15.4496 11.4763 15.4966C11.4568 15.498 11.3473 15.4989 11.1676 15.4995L10.7725 15.5002C10.6184 15.5003 10.4433 15.5003 10.2515 15.5002L9.4056 15.4994C9.32938 15.4993 9.25195 15.4992 9.17345 15.4991L8.69104 15.4983C7.54168 15.4964 6.24698 15.4934 5.24323 15.4912L4.83213 15.4903C4.70188 15.4901 4.57885 15.4898 4.46429 15.4896C4.35829 15.4976 4.25229 15.5016 4.14629 15.5016C2.03229 15.5026 0.18829 13.8826 0.0142901 11.7576L0.0141344 11.7554L0.0132001 11.7356C0.0131301 11.7335 0.0130587 11.7311 0.012986 11.7284L0.0122994 11.6969C0.0122197 11.6925 0.0121391 11.6877 0.0120575 11.6825L0.0113009 11.6242C0.0112146 11.6164 0.0111276 11.6081 0.0110401 11.5992L0.0102401 11.5047C0.0101501 11.4924 0.0100598 11.4795 0.00996937 11.466L0.00942511 11.3767C0.00933428 11.3604 0.00924345 11.3434 0.00915271 11.3256L0.00834104 11.1447C0.00825169 11.1221 0.00816271 11.0987 0.00807419 11.0744L0.00729252 10.8308C0.00720761 10.8009 0.00712345 10.77 0.00704011 10.7381L0.00631511 10.4225C0.00623761 10.3841 0.00616123 10.3447 0.00608604 10.3041L0.00524752 9.75971C0.00518345 9.70938 0.00512095 9.65778 0.00506011 9.60486L0.00428419 8.70818C0.00424234 8.64127 0.00420261 8.57287 0.00416511 8.50297L0.00415086 4.58504C0.00419373 4.46621 0.00424011 4.34541 0.00429011 4.22259C-0.0437099 3.19159 0.33029 2.16759 1.06029 1.37059C1.82229 0.53859 2.87329 0.0535903 4.02029 0.00459027C4.03573 0.00347916 4.10882 0.00263965 4.22937 0.0020306L4.44453 0.00128472C4.4859 0.00118749 4.52992 0.00110339 4.57642 0.00103176L5.86452 0.00114068C5.93809 0.00121219 6.01304 0.00129166 6.08921 0.00137847ZM11.0803 1.50859C9.81774 1.50676 8.27397 1.50455 6.95655 1.50311L6.26346 1.50241C6.15271 1.50231 6.04458 1.50221 5.93948 1.50213L4.2004 1.50218C4.13496 1.50248 4.09262 1.50292 4.07629 1.50359C3.33829 1.53459 2.65729 1.84759 2.16629 2.38359C1.70829 2.88459 1.47229 3.52459 1.50329 4.18859L1.50412 8.05155C1.50416 8.13683 1.50421 8.22152 1.50426 8.30551L1.50517 9.49955C1.50524 9.57385 1.50532 9.64691 1.5054 9.71861L1.50592 10.1317C1.50601 10.1975 1.5061 10.2618 1.5062 10.3244L1.50718 10.8394C1.50824 11.303 1.50959 11.6037 1.51129 11.6616C1.62529 13.0466 2.92329 14.1056 4.40929 13.9916C4.56643 13.9918 4.7279 13.9921 4.89272 13.9923L5.39625 13.9931C5.82263 13.9938 6.26388 13.9946 6.70482 13.9953L7.23284 13.9962C7.4958 13.9966 7.75647 13.997 8.01156 13.9974L8.51334 13.9982C8.59541 13.9983 8.67662 13.9984 8.75684 13.9986L9.22539 13.9992C9.30119 13.9993 9.37576 13.9993 9.44899 13.9994L11.2144 13.9994C11.3299 13.999 11.4025 13.9984 11.4243 13.9976C12.1593 13.9676 12.8413 13.6556 13.3323 13.1206C13.7913 12.6216 14.0273 11.9816 13.9983 11.3206L13.9974 11.3041L13.9972 6.4679C13.9972 6.38935 13.9971 6.31182 13.9971 6.23541L13.9963 5.37957C13.9963 5.31393 13.9962 5.24985 13.9961 5.18745L13.9952 4.67406C13.9949 4.52 13.9946 4.384 13.9942 4.26905L13.9933 4.06807C13.9927 3.95396 13.992 3.88078 13.9913 3.85559C13.8783 2.46359 12.5743 1.39159 11.0803 1.50859ZM18.5185 3.61529L15.4969 6.08058C15.497 6.20345 15.4971 6.33117 15.4972 6.46374L15.4979 8.97138L18.5065 11.7343C18.7275 11.9143 18.9495 11.8403 19.0355 11.7983C19.1215 11.7583 19.3205 11.6333 19.3205 11.3493L19.3325 4.00029C19.3335 3.71629 19.1335 3.59129 19.0475 3.55029C18.9625 3.51029 18.7375 3.43529 18.5185 3.61529Z" fill="#3274E1"/>
</svg>
